<svg width="45" height="46" viewBox="0 0 45 46" fill="none" xmlns="http://www.w3.org/2000/svg">
<path d="M43.0681 28.5381L44.667 26.9392L40.241 22.5132L44.667 18.0872L43.0681 16.4883L37.0431 22.5132L43.0681 28.5381Z" fill="#B0FF7D"/>
<path d="M2.09892 28.5381L0.5 26.9392L4.92604 22.5132L0.5 18.0872L2.09892 16.4883L8.12389 22.5132L2.09892 28.5381Z" fill="#B0FF7D"/>
<path d="M40.4371 12.5548L40.4371 10.2603L34.0857 10.2604L34.0857 3.90896H31.7912L31.7912 12.5548L40.4371 12.5548Z" fill="#00DF9A"/>
<path d="M11.0416 41.9502L8.74712 41.9502L8.74717 35.5989L2.39577 35.5989V33.3044L11.0416 33.3044L11.0416 41.9502Z" fill="#00DF9A"/>
<path d="M2.69087 12.5548L2.69087 10.2603L9.04224 10.2604L9.04222 3.90896H11.3367L11.3367 12.5548L2.69087 12.5548Z" fill="#00DF9A"/>
<path d="M32.0863 41.9502L34.3808 41.9502L34.3808 35.5989L40.7322 35.5989V33.3044L32.0863 33.3044L32.0863 41.9502Z" fill="#00DF9A"/>
<path d="M28.1479 2.21375L26.5255 0.591309L22.0344 5.08244L17.5433 0.591309L15.9209 2.21375L22.0344 8.32732L28.1479 2.21375Z" fill="#B0FF7D"/>
<path d="M28.1479 43.7863L26.5255 45.4087L22.0344 40.9176L17.5433 45.4087L15.9209 43.7863L22.0344 37.6727L28.1479 43.7863Z" fill="#B0FF7D"/>
<circle cx="21.5641" cy="23.1642" r="10.1579" fill="url(#paint0_diamond_1430_30375)"/>
<defs>
<radialGradient id="paint0_diamond_1430_30375" cx="0" cy="0" r="1" gradientUnits="userSpaceOnUse" gradientTransform="translate(21.5641 23.1642) rotate(90) scale(10.1579)">
<stop offset="0.664" stop-color="#00DF9A"/>
<stop offset="1" stop-color="#B0FF7D" stop-opacity="0.4"/>
</radialGradient>
</defs>
</svg>
