<svg width="87" height="13" viewBox="0 0 87 13" fill="none" xmlns="http://www.w3.org/2000/svg">
<path d="M5.22593 12.0952C8.20303 12.0952 10.2571 9.96047 10.2571 6.6572V0.289875H8.29351V6.50077C8.29351 8.7919 7.13525 10.2825 5.23498 10.2825C3.3347 10.2825 2.22169 8.77349 2.22169 6.50077V0.289875H0.249023V6.6572C0.249023 9.95127 2.24884 12.0952 5.22593 12.0952ZM28.364 11.9572H30.3366V0.289875H28.364V11.9572ZM33.0966 11.9572H35.0693V7.02525H39.829V5.21259H35.0602V2.10255H41.2407L41.2225 0.289875H33.0966V11.9572ZM47.6202 12.0952C51.0496 12.0952 53.5109 9.70283 53.5109 6.12352C53.5109 2.63622 51.104 0.151855 47.6202 0.151855C44.3716 0.151855 41.7293 2.40618 41.7293 6.12352C41.7293 9.73044 44.2358 12.0952 47.6202 12.0952ZM47.6202 10.2733C45.2493 10.2733 43.7653 8.47906 43.7653 6.11432C43.7653 3.74038 45.2674 1.95531 47.6202 1.95531C49.991 1.95531 51.4749 3.76797 51.4749 6.11432C51.4749 8.45145 50.0271 10.2733 47.6202 10.2733ZM71.1473 11.9572H73.1199V0.289875H71.1473V11.9572ZM80.9021 12.0952C83.6258 12.0952 85.8518 10.4481 86.2228 7.77055H84.205C83.834 9.42679 82.5399 10.2825 80.9111 10.2825C78.6761 10.2825 77.2915 8.50665 77.2915 6.12352C77.2915 3.75878 78.6851 1.96452 80.9111 1.96452C82.558 1.96452 83.843 2.82024 84.223 4.47648H86.2409C85.8699 1.78969 83.6982 0.151855 80.9021 0.151855C77.7893 0.151855 75.2465 2.42459 75.2465 6.12352C75.2465 9.74884 77.6535 12.0952 80.9021 12.0952ZM22.8441 12.0584C24.5816 12.0584 25.7217 10.9082 25.7217 8.95753V0.280676H23.7491V9.05874C23.7491 9.87766 23.3418 10.1169 22.9256 10.1169C22.5185 10.1169 22.256 9.87766 22.0027 9.32557L18.9531 2.68221C18.1297 0.887961 17.1343 0.170265 15.6683 0.170265C13.8857 0.170265 12.637 1.36644 12.637 3.71277V11.948H14.6097V3.46434C14.6097 2.5074 15.1345 2.11174 15.7046 2.11174C16.2566 2.11174 16.6005 2.43378 16.8991 3.10548L19.9757 9.83165C20.7087 11.4235 21.6225 12.0584 22.8441 12.0584ZM65.6094 12.0584C67.3467 12.0584 68.4869 10.9082 68.4869 8.95753V0.280676H66.5142V9.05874C66.5142 9.87766 66.1071 10.1169 65.6908 10.1169C65.2836 10.1169 65.0213 9.87766 64.7678 9.32557L61.7184 2.68221C60.8949 0.887961 59.8996 0.170265 58.4336 0.170265C56.651 0.170265 55.4022 1.36644 55.4022 3.71277V11.948H57.3748V3.46434C57.3748 2.5074 57.8998 2.11174 58.4698 2.11174C59.0218 2.11174 59.3656 2.43378 59.6642 3.10548L62.7408 9.83165C63.4738 11.4235 64.3788 12.0584 65.6094 12.0584Z" fill="white"/>
</svg>

