<svg width="28" height="29" viewBox="0 0 28 29" fill="none" xmlns="http://www.w3.org/2000/svg">
<g clip-path="url(#clip0_3216_1581)">
<path d="M13.9987 2.83325C7.5587 2.83325 2.33203 8.05992 2.33203 14.4999C2.33203 20.9399 7.5587 26.1666 13.9987 26.1666C20.4387 26.1666 25.6654 20.9399 25.6654 14.4999C25.6654 8.05992 20.4387 2.83325 13.9987 2.83325ZM4.66536 14.4999C4.66536 13.7883 4.7587 13.0883 4.91036 12.4233L10.487 17.9999V19.1666C10.487 20.4499 11.537 21.4999 12.8204 21.4999V23.7516C8.23536 23.1683 4.66536 19.2483 4.66536 14.4999ZM20.8704 20.7999C20.567 19.8549 19.7037 19.1666 18.6537 19.1666H17.487V15.6666C17.487 15.0249 16.962 14.4999 16.3204 14.4999H9.32036V12.1666H11.6537C12.2954 12.1666 12.8204 11.6416 12.8204 10.9999V8.66659H15.1537C16.437 8.66659 17.487 7.61659 17.487 6.33325V5.85492C20.9054 7.23159 23.332 10.5916 23.332 14.4999C23.332 16.9266 22.387 19.1433 20.8704 20.7999Z" fill="#00DF9A"/>
</g>
<defs>
<clipPath id="clip0_3216_1581">
<rect width="28" height="28" fill="white" transform="translate(0 0.5)"/>
</clipPath>
</defs>
</svg>
