<svg width="28" height="29" viewBox="0 0 28 29" fill="none" xmlns="http://www.w3.org/2000/svg">
<path d="M11.3761 7.96387V5.33887C11.3761 4.64267 11.6526 3.975 12.1449 3.48271C12.6372 2.99043 13.3049 2.71387 14.0011 2.71387C14.6973 2.71387 15.3649 2.99043 15.8572 3.48271C16.3495 3.975 16.6261 4.64267 16.6261 5.33887V7.96387C16.6261 8.66006 16.3495 9.32774 15.8572 9.82002C15.3649 10.3123 14.6973 10.5889 14.0011 10.5889C13.3049 10.5889 12.6372 10.3123 12.1449 9.82002C11.6526 9.32774 11.3761 8.66006 11.3761 7.96387ZM6.88732 12.6451C7.15666 12.8608 7.4659 13.0213 7.79733 13.1174C8.12876 13.2135 8.47588 13.2433 8.81884 13.2051C9.1618 13.1669 9.49386 13.0615 9.79603 12.8948C10.0982 12.7282 10.3645 12.5036 10.5798 12.2339C10.7955 11.9645 10.956 11.6553 11.0521 11.3239C11.1482 10.9924 11.178 10.6453 11.1398 10.3023C11.1016 9.95939 10.9962 9.62733 10.8295 9.32516C10.6629 9.02299 10.4383 8.75665 10.1686 8.54137L8.11232 6.90512C7.56573 6.51579 6.89078 6.35059 6.22616 6.44346C5.56154 6.53633 4.95773 6.88021 4.53879 7.40445C4.11985 7.92869 3.91759 8.59347 3.97358 9.2622C4.02956 9.93094 4.33954 10.5528 4.83982 11.0001L6.88732 12.6451ZM9.73982 15.9351C9.66342 15.5981 9.52124 15.2795 9.32144 14.9976C9.12163 14.7157 8.86812 14.476 8.57546 14.2922C8.2828 14.1085 7.95675 13.9844 7.616 13.927C7.27526 13.8695 6.92653 13.88 6.58982 13.9576L4.03482 14.5439C3.36525 14.707 2.78669 15.1269 2.42405 15.713C2.06142 16.299 1.94379 17.0042 2.09658 17.6762C2.24936 18.3482 2.66029 18.9332 3.24066 19.3048C3.82103 19.6765 4.52427 19.805 5.19857 19.6626L7.76232 19.0764C8.44107 18.922 9.0307 18.5043 9.40154 17.9152C9.77237 17.3262 9.89406 16.6139 9.73982 15.9351ZM12.1023 18.8751C11.4756 18.5742 10.7552 18.5342 10.099 18.7639C9.44286 18.9935 8.9046 19.4741 8.60232 20.1001L7.45607 22.4976C7.15439 23.1254 7.11443 23.8472 7.34498 24.5044C7.57553 25.1616 8.05771 25.7003 8.68545 26.002C9.31318 26.3037 10.035 26.3436 10.6922 26.1131C11.3494 25.8825 11.8881 25.4004 12.1898 24.7726L13.3273 22.4101C13.4818 22.0981 13.5726 21.7584 13.5945 21.4109C13.6165 21.0635 13.5691 20.7151 13.4551 20.3861C13.3411 20.0571 13.1627 19.7541 12.9305 19.4947C12.6983 19.2353 12.4167 19.0247 12.1023 18.8751ZM19.3998 20.1001C19.0788 19.5066 18.5415 19.0596 17.8995 18.8517C17.2576 18.6439 16.5602 18.6913 15.9522 18.984C15.3443 19.2767 14.8724 19.7923 14.6345 20.4238C14.3966 21.0552 14.4111 21.754 14.6748 22.3751L15.8123 24.7376C15.9617 25.0484 16.1708 25.3268 16.4278 25.5568C16.6847 25.7868 16.9845 25.9639 17.3099 26.0781C17.6353 26.1922 17.98 26.2412 18.3243 26.2221C18.6687 26.2031 19.0059 26.1164 19.3167 25.967C19.6275 25.8176 19.9059 25.6085 20.1359 25.3515C20.3659 25.0946 20.543 24.7948 20.6572 24.4694C20.7713 24.144 20.8203 23.7993 20.8012 23.455C20.7821 23.1106 20.6954 22.7734 20.5461 22.4626L19.3998 20.1001ZM23.9673 14.5176C22.7248 14.3076 20.5898 13.3801 19.4261 14.2726C18.9879 14.5494 18.6415 14.9497 18.4305 15.4231C18.2195 15.8965 18.1533 16.4217 18.2403 16.9326C18.3273 17.4436 18.5637 17.9173 18.9195 18.2941C19.2753 18.6709 19.7347 18.934 20.2398 19.0501C21.2748 19.3211 22.3233 19.5372 23.3811 19.6976C24.0064 19.6714 24.6019 19.4227 25.06 18.9962C25.5181 18.5697 25.8087 17.9935 25.8795 17.3716C25.9502 16.7497 25.7964 16.123 25.4458 15.6045C25.0952 15.086 24.5708 14.7098 23.9673 14.5439V14.5176ZM17.4223 12.2076C17.8569 12.7497 18.4887 13.0974 19.1792 13.1745C19.8697 13.2516 20.5626 13.0518 21.1061 12.6189L23.1623 11.0001C23.6898 10.5608 24.0243 9.93224 24.0939 9.24926C24.1635 8.56627 23.9628 7.8832 23.5347 7.34645C23.1067 6.8097 22.4854 6.46199 21.8041 6.37785C21.1227 6.29372 20.4356 6.47986 19.8898 6.89637L17.8336 8.54137C17.5639 8.75665 17.3393 9.02299 17.1726 9.32516C17.006 9.62733 16.9005 9.95939 16.8623 10.3023C16.8241 10.6453 16.8539 10.9924 16.95 11.3239C17.0461 11.6553 17.2066 11.9645 17.4223 12.2339V12.2076Z" fill="#00DF9A"/>
</svg>
