<svg width="28" height="29" viewBox="0 0 28 29" fill="none" xmlns="http://www.w3.org/2000/svg">
<g clip-path="url(#clip0_3232_92)">
<mask id="mask0_3232_92" style="mask-type:luminance" maskUnits="userSpaceOnUse" x="0" y="0" width="28" height="29">
<path d="M0 0.5H28V28.5H0V0.5Z" fill="white"/>
</mask>
<g mask="url(#mask0_3232_92)">
<path d="M8.10364 27.7632C7.97738 27.7631 7.85326 27.7306 7.74318 27.6688C7.63309 27.607 7.54074 27.5179 7.47498 27.4101C7.40922 27.3024 7.37226 27.1795 7.36763 27.0533C7.36301 26.9271 7.39089 26.8019 7.44859 26.6896L12.5807 16.7106H3.68259C3.53221 16.7106 3.38541 16.6647 3.26189 16.579C3.13838 16.4932 3.04406 16.3717 2.9916 16.2308C2.93914 16.0898 2.93106 15.9362 2.96844 15.7906C3.00581 15.6449 3.08686 15.5142 3.20069 15.4159L19.412 1.41592C19.5414 1.30383 19.7059 1.24033 19.8771 1.23634C20.0483 1.23235 20.2156 1.28813 20.3501 1.39407C20.4847 1.50002 20.5781 1.64952 20.6144 1.81689C20.6507 1.98426 20.6275 2.15903 20.5489 2.31118L15.4168 12.2895H24.3142C24.4645 12.2896 24.6112 12.3356 24.7346 12.4214C24.858 12.5072 24.9522 12.6287 25.0045 12.7696C25.0569 12.9105 25.0649 13.0641 25.0275 13.2097C24.9901 13.3553 24.9091 13.4859 24.7953 13.5841L8.58553 27.5841C8.45161 27.6997 8.28056 27.7633 8.10364 27.7632Z" fill="#00DF9A"/>
</g>
</g>
<defs>
<clipPath id="clip0_3232_92">
<rect width="28" height="28" fill="white" transform="translate(0 0.5)"/>
</clipPath>
</defs>
</svg>
