<?xml version="1.0" encoding="utf-8"?>
<!-- Generator: Adobe Illustrator 28.3.0, SVG Export Plug-In . SVG Version: 6.00 Build 0)  -->
<svg version="1.1" id="Layer_1" xmlns="http://www.w3.org/2000/svg" xmlns:xlink="http://www.w3.org/1999/xlink" x="0px" y="0px"
	 viewBox="0 0 175 58" style="enable-background:new 0 0 175 58;" xml:space="preserve">
<style type="text/css">
	.st0{fill:#FFFFFF;}
	.st1{fill:#4185B9;}
</style>
<g>
	<path class="st0" d="M173.9,51.4c-0.6-0.5-1.2-0.7-2.4-0.9l-1.5-0.2c-0.7-0.1-1.4-0.4-1.8-0.7c-0.4-0.4-0.6-0.9-0.6-1.5
		c0-1.5,1-2.5,2.8-2.5c1.4,0,2.3,0.4,3.1,1.1l0.9-0.9c-1.1-1-2.3-1.5-4-1.5c-2.6,0-4.3,1.5-4.3,3.8c0,1.1,0.3,1.9,1,2.5
		c0.6,0.5,1.4,0.8,2.5,1l1.6,0.2c1,0.1,1.3,0.3,1.7,0.6c0.4,0.4,0.6,1,0.6,1.7c0,1.6-1.2,2.5-3.1,2.5c-1.5,0-2.5-0.4-3.6-1.5l-1,1
		c1.3,1.3,2.6,1.8,4.6,1.8c2.8,0,4.6-1.4,4.6-3.8C175,53,174.6,52.1,173.9,51.4z"/>
	<polygon class="st0" points="156.1,57.8 164.4,57.8 164.4,56.5 157.5,56.5 157.5,51.7 163.4,51.7 163.4,50.4 157.5,50.4 
		157.5,45.7 164.4,45.7 164.4,44.4 156.1,44.4 	"/>
	<path class="st0" d="M153.3,48.1c0-2.3-1.6-3.7-4-3.7h-5.1v13.3h1.4v-5.9h3.2l3,5.9h1.7l-3.2-6C152.1,51.4,153.3,50.1,153.3,48.1z
		 M145.6,50.6v-4.9h3.6c1.6,0,2.7,0.8,2.7,2.5c0,1.6-1.1,2.4-2.7,2.4H145.6z"/>
	<path class="st0" d="M139.5,53.2c0,2-1.3,3.4-3.2,3.4c-1.9,0-3.2-1.3-3.2-3.4v-8.8h-1.4v8.9c0,2.7,1.9,4.5,4.6,4.5
		c2.7,0,4.7-1.9,4.7-4.5v-8.9h-1.4V53.2z"/>
	<polygon class="st0" points="120.6,45.7 124.4,45.7 124.4,57.8 125.8,57.8 125.8,45.7 129.7,45.7 129.7,44.4 120.6,44.4 	"/>
	<polygon class="st0" points="117,55.1 109.9,44.4 108.6,44.4 108.6,57.8 110,57.8 110,47.1 117.1,57.8 118.4,57.8 118.4,44.4 
		117,44.4 	"/>
	<polygon class="st0" points="97.7,57.8 106,57.8 106,56.5 99.2,56.5 99.2,51.7 105,51.7 105,50.4 99.2,50.4 99.2,45.7 106,45.7 
		106,44.4 97.7,44.4 	"/>
	<polygon class="st0" points="91.1,55.2 87.6,44.4 86.1,44.4 90.5,57.8 91.7,57.8 96,44.4 94.5,44.4 	"/>
	<polygon class="st0" points="78.1,49.9 73.6,49.9 73.6,44.4 71,44.4 71,57.8 73.6,57.8 73.6,52.2 78.1,52.2 78.1,57.8 80.7,57.8 
		80.7,44.4 78.1,44.4 	"/>
	<path class="st0" d="M65.3,50l-1.6-0.2c-0.5-0.1-1-0.3-1.2-0.5c-0.3-0.3-0.4-0.6-0.4-1c0-0.9,0.7-1.7,2.1-1.7
		c0.9,0,1.9,0.1,2.7,0.9l1.6-1.6c-1.1-1.1-2.5-1.6-4.3-1.6c-2.9,0-4.6,1.7-4.6,4c0,1.1,0.3,2,1,2.6c0.6,0.6,1.4,0.9,2.6,1.1l1.6,0.2
		c0.6,0.1,0.9,0.2,1.2,0.5c0.3,0.3,0.4,0.7,0.4,1.1c0,1.1-0.8,1.6-2.4,1.6c-1.2,0-2.4-0.3-3.2-1.1l-1.7,1.7c1.3,1.3,2.8,1.8,4.9,1.8
		c2.8,0,4.9-1.5,4.9-4c0-1.2-0.3-2.2-1-2.8C67.3,50.5,66.5,50.1,65.3,50z"/>
	<path class="st0" d="M52.1,44.4l-4.8,13.3H50l0.8-2.4h4.7l0.8,2.4H59l-4.9-13.3H52.1z M51.5,53.2l1.7-4.8l1.6,4.8H51.5z"/>
	<path class="st0" d="M45.3,45.7c-0.9-0.9-2.1-1.3-3.5-1.3h-4.8v13.3h4.8c1.4,0,2.6-0.4,3.5-1.3c1.5-1.5,1.3-3.4,1.3-5.4
		C46.6,49,46.8,47.2,45.3,45.7z M43.4,54.6c-0.4,0.5-1,0.8-1.9,0.8h-2v-8.7h2c0.9,0,1.5,0.3,1.9,0.8C43.9,48.2,44,49,44,51
		C44,53.1,43.9,54,43.4,54.6z"/>
</g>
<path class="st1" d="M23.8,35.8l-2.4,15.7l-1.5,0.3L23.8,35.8z M23.1,34.6L19,51.9l-1.6,0.3L23.1,34.6z M22.8,33.6l-6.3,18.8
	l-1.8,0.3L22.8,33.6L22.8,33.6z M22.8,31.9L14,52.8l-2,0.3L22.8,31.9L22.8,31.9z M23.6,29.6L11.5,53.2l-3.4,0.6L23.6,29.6z
	 M26.7,34.9l17.1-6.7L26.7,38.2V34.9z M26.7,30l18-2.8l-18,6.7V30z M47.1,26.7v0.8l-9.5,6.3L47.1,26.7z M47.2,28.1l1.2-2.9h0.8
	l-1.4,3.9l-10.6,5.7L47.2,28.1L47.2,28.1z M26.7,24.9l18,1.8l-18,2.2V24.9z M26.7,23.6v-2.8l13.3,4L26.7,23.6z M48.6,22.6l8.9-4.3
	L48.2,24L48.6,22.6z M49.3,20.3l8.4-2.8l-8.9,4.4L49.3,20.3z M26.7,19.8v-2.5L42,24.5L26.7,19.8L26.7,19.8z M45.5,23.7l3.3-6.4
	l-2.4,7.6L45.5,23.7L45.5,23.7z M50,18l7.7-1.1l-8.2,2.6L50,18z M44,22.1l5-5.5l-3.8,6.9L44,22.1z M42.5,20.4l6.3-4.1l-5.4,5.4
	L42.5,20.4L42.5,20.4z M50.7,15.7l6.5,0.4l-6.9,1L50.7,15.7L50.7,15.7z M26.7,16.6v-3.2L42.4,24L26.7,16.6z M26.7,13v-2.8l16,13.1
	L26.7,13z M6.3,9L25,18.5v3.5L6.3,9L6.3,9z M3.3,7.2L25,15v3L3.3,7.2L3.3,7.2z M3.3,6.9l21.7,4v3.2L3.3,6.9L3.3,6.9z M3.3,6.6
	L25,6.4V10L3.3,6.6L3.3,6.6z M30.5,6.4h4.7L42,19L30.5,6.4z M26.7,9.2V3.7l16.8,19.6L26.7,9.2L26.7,9.2z M25,2.4v3.1L3.3,6.4L25,2.4
	L25,2.4z M0,5.8l25.5,18.4L5.9,55.4l16.8-2.9l1.4-8.7l24.4-13.9l1.8-5l11.9-8.7L50.1,14l-7.3,4.5L35.7,5.3l-6.6-0.2l-3.6-4.2L0,5.8z
	"/>
</svg>
